<?xml version="1.0" standalone="no"?>
<!DOCTYPE svg PUBLIC "-//W3C//DTD SVG 20010904//EN"
 "http://www.w3.org/TR/2001/REC-SVG-20010904/DTD/svg10.dtd">
<svg version="1.0" xmlns="http://www.w3.org/2000/svg"
 width="420.000000pt" height="225.000000pt" viewBox="0 0 420.000000 225.000000"
 preserveAspectRatio="xMidYMid meet">

<g transform="translate(0.000000,225.000000) scale(0.100000,-0.100000)"
fill="#000000" stroke="none">
<path d="M2150 1860 c0 -296 -1 -310 -19 -320 -11 -5 -77 -10 -146 -10 -69 0
-135 5 -146 10 -17 10 -19 22 -19 128 0 79 4 122 12 130 8 8 54 12 140 12
l128 0 0 65 0 65 -140 0 c-157 0 -190 -8 -233 -59 -41 -49 -50 -94 -46 -233 4
-116 6 -127 32 -166 47 -72 81 -82 269 -82 137 0 169 3 203 19 98 45 104 69
105 444 l0 307 -70 0 -70 0 0 -310z"/>
<path d="M2410 2110 l0 -60 65 0 65 0 0 60 0 60 -65 0 -65 0 0 -60z"/>
<path d="M335 2103 c-46 -24 -66 -45 -86 -88 -16 -35 -19 -68 -19 -258 0 -181
3 -223 16 -250 23 -45 44 -66 86 -88 34 -17 62 -19 298 -19 l260 0 0 65 0 65
-243 0 c-194 0 -247 3 -263 14 -18 13 -19 28 -19 216 0 188 1 203 19 216 16
11 69 14 263 14 l243 0 0 65 0 65 -262 0 c-220 -1 -268 -3 -293 -17z"/>
<path d="M1072 1923 c-78 -38 -108 -128 -99 -294 6 -116 24 -160 80 -197 40
-27 42 -27 227 -27 l187 0 36 28 c64 49 77 88 77 230 0 136 -9 177 -49 220
-48 53 -66 57 -253 57 -140 0 -179 -4 -206 -17z m359 -130 c10 -11 14 -47 14
-125 0 -142 5 -138 -171 -138 -107 0 -136 3 -148 16 -13 12 -16 39 -16 129 0
98 2 115 18 124 9 6 78 11 153 11 115 0 139 -3 150 -17z"/>
<path d="M2410 1670 l0 -270 65 0 65 0 0 270 0 270 -65 0 -65 0 0 -270z"/>
<path d="M2687 1922 c-15 -16 -17 -50 -17 -270 l0 -252 65 0 65 0 0 205 0 205
120 0 c209 0 220 -13 220 -255 l0 -155 65 0 65 0 0 178 c0 165 -2 181 -24 227
-25 54 -71 100 -123 122 -23 9 -86 13 -226 13 -175 0 -196 -2 -210 -18z"/>
<path d="M3465 1922 c-77 -49 -95 -96 -95 -254 0 -98 4 -131 19 -163 39 -86
87 -105 266 -105 l135 0 0 65 0 65 -121 0 c-66 0 -129 5 -140 10 -17 10 -19
22 -19 128 0 79 4 122 12 130 8 8 57 12 153 12 96 0 145 -4 153 -12 18 -18 17
-471 -1 -486 -8 -7 -68 -13 -143 -14 l-129 -3 0 -65 0 -65 123 -3 c148 -3 194
7 243 57 55 55 61 89 57 359 -3 265 -6 277 -75 329 l-36 28 -186 3 c-168 2
-189 1 -216 -16z"/>
<path d="M682 1918 c-28 -28 -7 -78 33 -78 12 0 26 5 33 12 7 7 12 21 12 33 0
12 -5 26 -12 33 -7 7 -21 12 -33 12 -12 0 -26 -5 -33 -12z"/>
<path d="M482 1908 c-19 -19 -14 -56 8 -68 43 -23 83 17 60 60 -12 22 -49 27
-68 8z"/>
<path d="M534 1744 c3 -8 24 -47 47 -86 l41 -70 34 57 c19 31 41 69 49 86 l16
29 -97 0 c-83 0 -95 -2 -90 -16z"/>
<path d="M1290 815 l0 -65 60 0 60 0 0 -295 0 -295 70 0 70 0 0 360 0 360
-130 0 -130 0 0 -65z"/>
<path d="M1900 868 c-97 -28 -189 -128 -211 -229 -17 -79 -7 -244 18 -300 30
-67 81 -119 148 -151 59 -28 63 -28 241 -28 212 0 248 9 325 78 82 73 99 121
99 273 0 158 -13 201 -84 273 -80 83 -128 96 -334 95 -92 0 -183 -5 -202 -11z
m349 -127 c57 -11 91 -37 119 -92 21 -39 23 -55 20 -144 -4 -121 -21 -159 -88
-193 -43 -22 -54 -23 -211 -20 -165 3 -166 3 -203 32 -54 41 -66 77 -66 197 0
144 30 195 126 218 50 12 246 13 303 2z"/>
<path d="M2080 584 c-96 -64 -185 -126 -197 -137 -27 -25 -30 -68 -5 -89 43
-38 52 -35 259 104 186 125 198 135 201 166 4 41 -20 72 -57 72 -17 0 -90 -43
-201 -116z"/>
<path d="M2600 815 l0 -65 60 0 60 0 0 -295 0 -295 70 0 70 0 0 360 0 360
-130 0 -130 0 0 -65z"/>
</g>
</svg>
