<?xml version="1.0" standalone="no"?>
<!DOCTYPE svg PUBLIC "-//W3C//DTD SVG 20010904//EN"
 "http://www.w3.org/TR/2001/REC-SVG-20010904/DTD/svg10.dtd">
<svg version="1.0" xmlns="http://www.w3.org/2000/svg"
 width="779.000000pt" height="450.000000pt" viewBox="0 0 779.000000 450.000000"
 preserveAspectRatio="xMidYMid meet">

<g transform="translate(0.000000,450.000000) scale(0.100000,-0.100000)"
fill="#000000" stroke="none">
<path d="M3618 3868 c-2 -414 -6 -548 -16 -565 -20 -35 -73 -43 -287 -43 -235
0 -271 7 -291 55 -17 42 -20 345 -4 392 17 49 40 53 280 53 l220 0 0 121 0
121 -247 -4 c-243 -3 -249 -4 -303 -29 -78 -36 -124 -80 -160 -151 l-30 -61 0
-233 c0 -283 8 -315 99 -404 89 -88 109 -92 452 -88 266 3 287 4 331 25 66 30
132 95 159 156 l24 52 3 573 3 572 -115 0 -115 0 -3 -542z"/>
<path d="M407 4296 c-87 -32 -146 -88 -189 -182 -23 -48 -23 -54 -23 -434 0
-292 3 -396 13 -431 21 -71 77 -137 152 -178 l65 -36 468 -3 467 -3 0 115 0
115 -441 3 -441 3 -24 28 -24 28 0 344 c0 240 4 352 12 369 7 17 24 30 47 36
21 6 207 10 454 10 l417 0 0 115 0 115 -457 0 c-359 -1 -466 -4 -496 -14z"/>
<path d="M615 3975 c-50 -49 -15 -135 55 -135 41 0 80 39 80 80 0 41 -39 80
-80 80 -19 0 -40 -9 -55 -25z"/>
<path d="M995 3975 c-50 -49 -15 -135 55 -135 41 0 80 39 80 80 0 41 -39 80
-80 80 -19 0 -40 -9 -55 -25z"/>
<path d="M1780 3989 c-74 -15 -151 -61 -193 -115 -62 -81 -69 -121 -65 -387 3
-219 4 -234 26 -275 35 -66 88 -119 150 -149 l57 -28 300 0 300 0 56 27 c67
34 121 85 151 147 22 44 23 56 23 301 0 241 -1 258 -22 302 -31 66 -83 120
-150 154 l-58 29 -265 2 c-146 1 -285 -2 -310 -8z m534 -240 c38 -18 46 -58
46 -236 0 -196 -8 -226 -67 -242 -49 -14 -426 -14 -475 -1 -59 17 -63 31 -63
248 l0 194 28 24 c28 24 29 24 267 24 157 0 248 -4 264 -11z"/>
<path d="M4240 3886 l0 -116 275 0 276 0 24 -24 c31 -31 38 -81 33 -268 -3
-169 -12 -199 -66 -219 -16 -6 -117 -9 -257 -7 -250 3 -264 6 -286 61 -9 21
-9 37 0 68 19 64 42 69 296 69 l215 0 0 111 0 110 -263 -3 -263 -3 -58 -35
c-109 -65 -162 -171 -154 -308 3 -46 12 -91 22 -111 28 -53 96 -120 151 -149
l50 -27 305 0 305 0 54 30 c77 42 127 104 152 186 19 62 20 89 17 291 -3 207
-5 226 -25 268 -37 74 -79 117 -151 152 l-67 33 -292 3 -293 4 0 -116z"/>
<path d="M5497 3990 c-88 -15 -169 -79 -219 -173 -22 -41 -23 -51 -23 -307 0
-241 2 -268 19 -300 38 -71 77 -109 144 -142 l66 -33 253 -3 253 -3 0 115 0
114 -230 4 c-298 4 -274 -17 -278 235 -4 201 2 233 44 252 16 7 108 11 265 11
l240 0 24 -25 25 -24 0 -409 0 -409 -26 -24 c-25 -24 -28 -24 -255 -27 l-229
-4 0 -114 0 -114 233 0 c260 0 300 7 383 63 61 40 99 97 119 176 14 51 16 126
13 483 l-3 423 -26 55 c-30 63 -59 96 -115 133 -73 48 -135 57 -394 56 -129
-1 -256 -5 -283 -9z"/>
<path d="M6737 3986 c-97 -27 -183 -112 -212 -208 -22 -74 -22 -462 0 -536 20
-68 96 -151 167 -183 51 -23 64 -24 306 -27 l252 -3 0 110 0 110 -230 3 -230
3 -27 28 -28 27 -3 172 c-4 198 0 231 33 264 l24 24 249 0 c233 0 251 -1 274
-20 30 -23 39 -60 26 -106 -17 -62 -27 -64 -280 -64 l-228 0 0 -116 0 -116
248 4 249 4 66 32 c74 37 109 72 146 152 22 46 26 69 26 140 0 73 -4 93 -28
142 -33 67 -80 111 -157 147 -55 26 -57 26 -325 28 -201 2 -282 -1 -318 -11z"/>
<path d="M672 3632 c2 -5 44 -79 93 -165 68 -117 93 -153 101 -144 8 9 120
200 181 310 2 4 -82 7 -187 7 -106 0 -190 -4 -188 -8z"/>
<path d="M2190 1655 l0 -135 120 0 120 0 0 -610 0 -610 140 0 140 0 0 745 0
745 -260 0 -260 0 0 -135z"/>
<path d="M3462 1776 c-213 -52 -403 -240 -457 -451 -21 -84 -21 -463 0 -554
51 -216 230 -395 451 -451 69 -18 111 -20 399 -20 288 0 330 2 399 20 201 51
369 205 437 398 42 122 50 467 14 607 -57 220 -232 391 -460 450 -78 20 -700
21 -783 1z m790 -294 c80 -39 138 -101 170 -181 21 -52 23 -71 23 -261 l0
-205 -31 -65 c-36 -76 -78 -122 -144 -155 -79 -40 -154 -47 -456 -43 -261 4
-283 5 -335 26 -80 32 -142 90 -181 170 l-33 67 0 210 0 210 29 62 c44 97 138
172 239 193 23 5 179 8 347 7 l305 -2 67 -33z"/>
<path d="M4174 1416 c-64 -29 -784 -517 -801 -543 -27 -40 -24 -110 6 -150 30
-39 91 -66 134 -57 18 3 207 124 427 272 376 255 396 269 409 309 37 107 -74
215 -175 169z"/>
<path d="M4890 1655 l0 -135 125 0 125 0 0 -610 0 -610 135 0 135 0 0 745 0
745 -260 0 -260 0 0 -135z"/>
</g>
</svg>
