<?xml version="1.0" standalone="no"?>
<!DOCTYPE svg PUBLIC "-//W3C//DTD SVG 20010904//EN"
 "http://www.w3.org/TR/2001/REC-SVG-20010904/DTD/svg10.dtd">
<svg version="1.0" xmlns="http://www.w3.org/2000/svg"
 width="846.000000pt" height="554.000000pt" viewBox="0 0 846.000000 554.000000"
 preserveAspectRatio="xMidYMid meet">

<g transform="translate(0.000000,554.000000) scale(0.100000,-0.100000)"
fill="#000000" stroke="none">
<path d="M3215 4816 c-129 -21 -283 -79 -382 -147 -177 -121 -325 -338 -384
-564 -38 -143 -41 -247 -37 -1295 4 -1009 4 -1015 26 -1099 47 -177 116 -309
220 -422 114 -123 300 -229 497 -282 80 -22 83 -22 1418 -24 l1337 -3 0 350 0
350 -1292 0 c-1059 1 -1300 3 -1331 14 -98 35 -150 104 -167 222 -13 92 -13
1885 0 1977 6 37 19 85 29 106 25 48 80 96 128 113 30 10 311 13 1336 16
l1297 2 0 350 0 350 -1307 -1 c-992 -1 -1327 -4 -1388 -13z"/>
<path d="M3810 3768 c-67 -36 -103 -94 -108 -171 -3 -51 1 -70 20 -107 79
-147 293 -146 368 1 28 54 27 142 -3 194 -54 95 -182 133 -277 83z"/>
<path d="M4742 3769 c-165 -82 -136 -320 44 -368 63 -17 155 9 195 55 48 54
64 144 39 209 -40 104 -175 155 -278 104z"/>
<path d="M3830 2860 c0 -9 554 -977 585 -1023 11 -15 51 50 314 501 165 286
301 522 301 526 0 3 -270 6 -600 6 -406 0 -600 -3 -600 -10z"/>
</g>
</svg>
